<?xml version="1.0" encoding="utf-8"?>
<!-- Generator: Adobe Illustrator 28.0.0, SVG Export Plug-In . SVG Version: 6.00 Build 0)  -->
<svg version="1.1" id="Layer_1" xmlns="http://www.w3.org/2000/svg" xmlns:xlink="http://www.w3.org/1999/xlink" x="0px" y="0px"
	 viewBox="0 0 879.9 620.5" style="enable-background:new 0 0 879.9 620.5;" xml:space="preserve">
<style type="text/css">
	.st0{fill:#0A3921;}
	.st1{fill:#A7BC90;}
</style>
<path class="st0" d="M876.9,497.4c-157.2,0-314.4,0-471.6,0c-40,0-79.9,0-119.9-0.1c-0.5-1-0.9-2-0.9-3.2c0.1-22.5,0.2-45,0.1-67.4
	c0-4.2,1.2-5.8,5.7-5.8c29.5,0.2,59,0,88.4,0.1c3.6,0,4.8-1.2,4.7-4.5c-0.1-4,0.2-8-0.1-12c-0.4-4.4,1.2-5.6,5.6-5.6
	c98.4,0.5,196.8-0.6,295.2,0.6c30.3,0.4,60.6-0.5,90.8,0.4c5.9,0.2,6.7-1.1,4.8-7.1c0-1.5,0-3,0-4.5c1.1-1.5,1.2-3.1,0-4.6
	c0-14.1,0-28.2,0-42.4c0-13.4-0.2-26.9-0.3-40.3c0.3-0.1,0.5-0.3,0.8-0.5c0.1-0.1,0.1-0.4,0.1-0.5c-3.4-3.3-7.5-1.6-11.3-1.7
	c-64.8-0.4-129.6,0.5-194.4,0.1c-27.6-0.2-55.2-0.1-82.8,0.6c-42,1-84.1,0.1-126.2-0.5c-51.8-0.8-103.6-0.2-155.4-0.2
	c-35.5,0-70.9-0.1-106.4-0.3c-2.3,0-3.5,0.4-2.6,2.9c-0.1,1.1-0.3,2.3-0.3,3.5c0,29.7,0,59.5,0,89.2c-1.5,1.8-1.2,3.7,0.1,5.4
	c1,1.2,2.3,1.1,3.3-0.1c21.1,0,42.1,0,63.1,0.1c5.3,0,10.6-0.5,15.9,0.4c2.1,0.4,3.7,1.1,2.6,3.8c-0.4,1-0.2,2.3-0.2,3.5
	c0.1,29.2,0.2,58.4,0.3,87.5c0,1.2-0.2,2.3-0.9,3.2c-60.4,0-120.9,0-181.3-0.1c-2.5-1.2-0.3-3.9-1.7-5.4c0-0.7,0-1.4,0-2.1
	c1-1,0.9-2-0.1-3c0-1.7,0-3.4,0-5c1-1.6,1-3.3,0-5c0-2,0-4,0-6c1-1.3,1-2.6,0-4c0-3.8,0.1-7.7,0.1-11.5c0-148.5,0-297,0-445.5
	c0.2-5.4,2.1-7.3,8.3-7.3c130.3-0.2,260.6,0.9,390.8-0.4c33.8-0.3,67.6,0.2,101.4,0.3C622,3.1,741.5,2.8,860.9,2.8
	c4.2,0,8.3,0.4,12.5,0.1c3.8-0.3,4.4,1.5,4.4,4.7c-0.1,27.3-0.1,54.7-0.1,82c0,7.5-3.8,11.3-11.5,11.3
	c-126.3,0.1-252.6,0.2-378.9,0.2c-4.2,0-6.2,1.3-6,5.8c0.3,8.3,0.2,16.6,0.5,24.9c0.8,21,0.4,42,0.2,62.9c0,4.6,1.3,5.3,5.2,5.4
	c65.5,0.4,130.9-0.5,196.4,0.6c60.5,1,121,0.1,181.4,0.1c3,0,6,0.2,9,0c2.6-0.2,3.6,0.9,3.6,3.4c0,3.5,0,7,0,10.5
	c0,92.5,0,184.9,0,277.4C877.7,493.8,878,495.7,876.9,497.4L876.9,497.4z M383.2,122.2c0.5-0.4,0.6-0.8,0.1-1.3
	c0.6-5-0.9-10.1,0.1-15.1l0.3-0.4l-0.3-0.4c-0.2-0.9-0.5-1.8-0.7-2.7c-0.2-1.6-1.2-1.8-2.5-1.7c-2,0.1-4,0.1-6,0.1
	c-89.8,0-179.6,0-269.5-0.1c-3.2,0-4.8,0.7-3.9,4.2c0,31-0.1,62-0.1,93c-0.6,1.5,0,2.1,1.5,2c11.9-0.1,23.9-0.1,35.8-0.2
	c16.1-0.1,32.2-0.2,48.2-0.3c-0.1,5.9,0.1,11.9-0.3,17.8c-0.3,4.6,1.4,5.9,6,5.9c55.1-0.1,110.1-0.1,165.2-0.1c5.3,0,10.6,0.2,16,0
	c10.1-0.3,10.1-0.4,10.1-10.6c0-24.8,0-49.6,0-74.4c0-4.8-0.3-9.5-0.4-14.3C383,123.3,383.1,122.8,383.2,122.2L383.2,122.2z"/>
<path class="st1" d="M779.8,392.7c1.9,6.1,1.1,7.3-4.8,7.1c-30.3-0.9-60.6,0-90.8-0.4c-98.4-1.2-196.8-0.1-295.2-0.6
	c-4.5,0-6,1.2-5.6,5.6c0.3,4,0,8,0.1,12c0.1,3.4-1.1,4.6-4.7,4.5c-29.5-0.1-59,0-88.4-0.1c-4.5,0-5.7,1.5-5.7,5.8
	c0.1,22.5,0,45-0.1,67.4c0,1.3,0.4,2.2,0.9,3.2c0,7.1-0.2,14.1-0.1,21.2c0,2.1,1.8,2.6,3.7,2.1c3-0.8,6-0.4,9-0.4
	c119.5,0,238.9-0.1,358.4,0.1c7.1,0,14.2-0.5,21.3,0.5c2.5,0.4,3.4,1.3,3.4,3.8c0,30.2,0,60.3-0.1,90.5c0,3.9-1.7,5.4-6,5.1
	c-6.9-0.5-13.8,0.2-20.7,0.2c-146.3,0.1-292.5,0.1-438.8,0.1c-8.1,0-16.2-0.7-24.3-0.6c-4.3,0.1-5.5-1.7-5.5-5.6
	c0.1-11.8,0-23.7,0-35.5c0-24.2,0.1-48.3-0.1-72.5c0-2.9,2.4-6.1-0.4-9c0.7-1,0.9-2,0.9-3.2c-0.1-29.2-0.2-58.4-0.3-87.6
	c0-1.2-0.2-2.4,0.2-3.5c1.1-2.7-0.5-3.4-2.6-3.8c1.5-1.5,3.2-2.3,3.1-5.4c-0.3-21.5-0.2-43-0.2-64.5c0-6.7,0-6.8,6.8-6.8
	c126.8,0,253.5,0,380.3,0c1.2,0,2.3,0.1,3.5,0c3.3-0.5,5.4-1.7,4.9-5.8c-0.5-4.1-0.4-8.4,0.1-12.4c0.4-2.9-0.7-3.6-3-3.8
	c-1.3-0.1-2.7,0-4,0c-66.8,0-133.6,0-200.4,0c-88.6,0-177.2,0-265.9,0c-2.5,0-5,0.1-7.5,0.2c-0.8-2.5,0.3-2.9,2.6-2.9
	c35.5,0.1,70.9,0.2,106.4,0.3c51.8,0,103.6-0.6,155.4,0.2c42.1,0.6,84.2,1.5,126.2,0.5c27.6-0.7,55.2-0.8,82.8-0.6
	c64.8,0.5,129.6-0.5,194.4-0.1c3.8,0,8-1.6,11.3,1.7c0.1,0.1,0,0.4-0.1,0.5c-0.2,0.2-0.5,0.3-0.8,0.5c-31.5-0.1-63-0.1-94.4-0.3
	c-4,0-4,2.2-4,5.2c0,28.5,0,57,0,85.5c0,6.8-0.1,6.8,6.5,6.8c28.5,0,57-0.1,85.4,0.1C777.2,398.2,779.9,397.6,779.8,392.7
	L779.8,392.7z"/>
<path class="st1" d="M876.9,497.4c1.1-1.6,0.8-3.5,0.8-5.3c0-92.5,0-184.9,0-277.4c0-3.5-0.1-7,0-10.5c0-2.5-1-3.6-3.6-3.4
	c-3,0.2-6,0-9,0c-60.5,0-121,0.8-181.4-0.1c-65.5-1-130.9-0.2-196.4-0.6c-3.9,0-5.3-0.8-5.2-5.4c0.2-21,0.6-42-0.2-62.9
	c-0.3-8.3-0.2-16.6-0.5-24.9c-0.2-4.4,1.8-5.8,6-5.8c126.3,0,252.6-0.1,378.8-0.2c7.7,0,11.5-3.8,11.5-11.3c0-27.3,0-54.7,0.1-82
	c0-3.2-0.6-5-4.4-4.7c-4.1,0.3-8.3-0.1-12.5-0.1C741.5,2.8,622,3.1,502.6,2.6c-33.8-0.1-67.6-0.7-101.4-0.3
	C270.9,3.5,140.6,2.4,10.3,2.6C4.2,2.7,2.2,4.6,2,9.9c-2.1-2.4-2.2-5.2-0.7-7.7C2.8,0,5.3,0.6,7.7,0.5C14.3,0.3,21,0.8,27.6,0.8
	c113,0.1,225.9,0.5,338.9-0.2c42.1-0.3,84.3-1,126.4-0.5c123.8,1.5,247.5,0.2,371.3,0.7c3.3,0,6.6-0.4,10-0.5c4.3-0.2,6,1.6,5.7,6
	c-1.5,29-0.3,58-0.6,86.9c0,1.5,0.7,3,0.6,4.4c-0.3,3.3-0.8,6.4-5.7,5.4c-2.4-0.5-5-0.2-7.5-0.2c-121.3,0-242.6,0-363.9,0
	c-5.3,0-10.5,1.3-15.9,0.9c-2.4-0.2-3.7,1.1-3.6,3.7c0,0.2,0,0.3,0,0.5c-0.8,10.2,3.8,15.3,14,15.3c58.6,0,117.3,0,175.9,0
	c7.7,0,7.7,0.1,7.7,7.5c0,20.8,0.1,41.7,0,62.5c0,4.2,1,5.9,5.6,5.9c61.8-0.1,123.6-0.1,185.5-0.1c7.2,0,7.2-0.1,7.2,7
	c0,91.6,0,183.3,0,274.9c0,4.6-0.2,9.3,0.5,13.9C880.1,496.9,879.2,498.1,876.9,497.4L876.9,497.4z"/>
<path class="st1" d="M2.1,491.9c1.4,1.5-0.7,4.2,1.7,5.4c-1.5,0.7-3.2,0.7-3.6-1C-0.3,494.7,0.4,493,2.1,491.9L2.1,491.9z"/>
<path class="st1" d="M2,476.9c1,1.6,1,3.3,0,5C0.2,480.2,0.2,478.6,2,476.9z"/>
<path class="st1" d="M2,466.9c1,1.3,1,2.6,0,4C0.3,469.5,0.3,468.2,2,466.9z"/>
<path class="st1" d="M2,486.9c1,1,1,2,0.1,3C0.4,488.9,0.3,487.9,2,486.9z"/>
<path class="st1" d="M382.9,123.9c0.1,4.8,0.4,9.5,0.4,14.3c0,24.8,0,49.6,0,74.4c0,10.2,0,10.2-10.1,10.6c-5.3,0.2-10.6,0-16,0
	c-55.1,0-110.1-0.1-165.2,0.1c-4.6,0-6.3-1.2-6-5.9c0.4-5.9,0.2-11.9,0.3-17.8c-0.2-2.6-0.7-5.3-0.7-7.9
	c-0.1-20.3-0.1-40.6-0.1-60.9c0-7.4,0.1-7.5,7.6-7.5c56.4,0,112.9,0,169.3,0C369.4,123.2,376.2,122.9,382.9,123.9L382.9,123.9z"/>
<path class="st1" d="M382.8,102.4c-4.4,1.4-8.8,0.3-13.2,0.3c-87.7,0-175.3,0-263,0c-2.3,0-4.2,0.5-5.7,2.2
	c-0.9-3.4,0.6-4.2,3.9-4.2c89.8,0.1,179.6,0.1,269.5,0.1c2,0,4-0.1,6-0.1C381.5,100.7,382.6,100.9,382.8,102.4L382.8,102.4z"/>
<path class="st1" d="M100.9,393.6c0.4,2.2,1.1,4.3,3.4,5.3c-1.1,1.2-2.4,1.3-3.3,0.1C99.7,397.3,99.4,395.4,100.9,393.6L100.9,393.6
	z"/>
<path class="st1" d="M779.8,388.2c-0.7-1.5-0.7-3.1,0-4.6C781,385.1,780.9,386.7,779.8,388.2z"/>
<path class="st1" d="M100.8,198c1.1,0.2,1.7,0.9,1.5,2C100.8,200.1,100.1,199.5,100.8,198z"/>
<path class="st1" d="M383.4,105.8c-0.2-0.1-0.4-0.3-0.5-0.4c0.2-0.1,0.4-0.2,0.5-0.3l0.3,0.4L383.4,105.8z"/>
<path class="st1" d="M383.2,122.2c-0.6-0.5-0.5-0.9,0.1-1.3C383.8,121.4,383.7,121.8,383.2,122.2z"/>
</svg>
