<?xml version="1.0" encoding="UTF-8"?>
<svg id="Layer_1" data-name="Layer 1" xmlns="http://www.w3.org/2000/svg" viewBox="0 0 1000.78 247.34">
  <defs>
    <style>
      .cls-1 {
        fill: #fefefe;
      }

      .cls-1, .cls-2, .cls-3 {
        stroke-width: 0px;
      }

      .cls-2 {
        fill: #a6bc8f;
      }

      .cls-3 {
        fill: #0a3921;
      }
    </style>
  </defs>
  <path class="cls-3" d="m67.88,200.15c-21.51,0-43.02,0-64.52,0-2.31-.84-1.99-2.72-1.99-4.62.03-63.36.03-126.72.02-190.09,0-3.83.31-4.18,3.99-4.18,32.57,0,65.13.02,97.7.02,16.28,0,32.57-.05,48.85-.12,1.09,0,2.33.43,3.27-.57,14.22,0,28.44-.02,42.66-.03.91,1.08,2.15.63,3.24.63,36.94.05,73.88.07,110.82.09,12.4,0,24.79.06,37.19-.07,1.81-.02,2.94.39,3.69,1.95.01,12.07.02,24.15.04,36.22-.73,1.05-1.57,1.58-3.02,1.58-51.11-.07-102.22-.08-153.33-.09-.76,0-1.72-.33-2.06.82-.08.05-.14.11-.19.19-1.8,1.53-.84,3.54-.67,5.24.97,9.55.1,19.12.53,28.68.16,3.72.19,4.24,4.01,4.33,26.07.6,52.12-.45,78.22.76,24.24,1.12,48.58.25,72.87.14,1.84,0,2.91.47,3.67,2,.01,21.74.03,43.48.04,65.22,0,16.78,0,33.56-.01,50.34-.5.23-.69.6-.51,1.14,0,0-.02.02-.02.02-.54-.21-.92-.05-1.12.5-.34,0-.67,0-1.01.01-.9-.89-2.04-.48-3.06-.48-76.47-.03-152.94-.05-229.4-.07-.99,0-1.98-.04-2.97-.13-.84-.08-1.56-.59-1.21-1.47,1.06-2.67.35-5.4.41-8.09.14-6.36.17-12.72-.03-19.08-.09-2.9.34-3.67,3.26-3.62,3.14.06,6.28-.01,9.42.07,7.68.19,15.37-.32,23.04.29,2.74.22,3.57-.67,3.6-3.58.03-2.96,1.26-4.18,4.2-4.18,2.73,0,5.46-.06,8.18-.03,39.31.45,78.64-.95,117.95.91,8.58.41,17.19.09,25.79.1,2.93,0,4.57-1.42,4.47-3.72-.49-11.3-.4-22.61-.05-33.91.04-1.28-.09-2.34-1.81-1.96-.15-.17-.31-.35-.46-.52-.47-.85-1.29-.59-1.99-.59-10.91-.02-21.82-.03-32.73,0-.86,0-1.84-.31-2.53.57-.23.13-.47.26-.7.39-.16-.5-.56-.52-.98-.52-14.54.08-29.07.22-43.62-.32-11.72-.43-23.48.01-35.22,0-47.46-.02-94.92-.06-142.38-.1-2.65,0-5.29-.06-7.94-.04-2.59.02-3.33.94-2.98,3.49.11.81.09,1.65.09,2.47-.01,10.41-.04,20.82-.05,31.24,0,2.62.97,3.51,3.35,3.41,9.66-.4,19.32-.28,28.98.13,1.76.08,2.47.85,2.46,2.63-.06,10.49-.06,20.99-.08,31.48,0,.82-.18,1.68.34,2.41,1.39,1.92-.04,1.95-1.37,2.14-2.09.31-4.27-.36-6.31.57Zm46.47-111.33c10.09,0,20.18,0,30.27,0,2.23,0,4.47.06,6.7,0,3.13-.08,3.69-.7,3.69-3.84,0-9.42-.02-18.85.02-28.27.02-3.85-.39-7.71.38-11.55.74-3.64-.35-4.77-4.19-4.76-35.15.04-70.3.07-105.44.1-.74,0-1.48-.09-2.21-.22-2.18-.39-4.03,1.03-3.84,3.23.85,9.57.1,19.15.33,28.72.03,1.16.09,2.33-.05,3.47-.65,5.32.2,6.26,5.29,6.22,8.35-.06,16.71-.03,25.06,0,2.83,0,3.48.76,3.27,3.56-.12,1.69.33,2.94,2.28,3.11.98.08,1.97.23,2.95.23,11.83.02,23.65.01,35.48,0Z"/>
  <path class="cls-2" d="m312,121.31c1.72-.38,1.85.68,1.81,1.96-.35,11.3-.44,22.61.05,33.91.1,2.31-1.54,3.73-4.47,3.72-8.6,0-17.21.3-25.79-.1-39.31-1.86-78.64-.47-117.95-.91-2.73-.03-5.46.03-8.18.03-2.94,0-4.17,1.22-4.2,4.18-.03,2.92-.86,3.8-3.6,3.58-7.68-.62-15.36-.1-23.04-.29-3.14-.08-6.28-.01-9.42-.07-2.92-.05-3.35.72-3.26,3.62.2,6.35.17,12.72.03,19.08-.06,2.69.65,5.42-.41,8.09-.35.88.37,1.38,1.21,1.47.98.1,1.98.13,2.97.13,76.47.02,152.94.03,229.4.07,1.02,0,2.16-.41,3.06.48-1.1.87-2.39.47-3.59.47-75.67.02-151.34.01-227.02.01-1.65,0-3.31.01-4.96.02-1.24,0-1.9.39-.79,1.52.88.9.82,1.83.6,2.96-.29,1.51.42,2.99,1.99,2.54,2.7-.77,5.22.12,7.82.12,47.61-.03,95.21-.02,142.82-.02.99,0,1.99-.06,2.98.04,2.72.29,3.37,1.05,3.37,3.79,0,10.5,0,20.99,0,31.49,0,3.4-.75,4.12-4.27,4.12-33.16,0-66.33.01-99.49.02-30.19,0-60.37,0-90.56,0-3.95,0-4.46-.52-4.46-4.38,0-12.56,0-25.13,0-37.69,0-.58-.19-1.28.06-1.72,1.78-3.08-.58-2.63-2.31-2.83-1.51-.17-3.14.53-4.54-.57,2.03-.93,4.21-.26,6.31-.57,1.33-.2,2.76-.22,1.37-2.14-.52-.72-.34-1.59-.34-2.41.02-10.49.02-20.99.08-31.48.01-1.78-.7-2.55-2.46-2.63-9.66-.42-19.32-.53-28.98-.13-2.38.1-3.35-.79-3.35-3.41.01-10.41.04-20.82.05-31.24,0-.82.02-1.66-.09-2.47-.35-2.55.39-3.48,2.98-3.49,2.65-.02,5.29.04,7.94.04,47.46.04,94.92.08,142.38.1,11.74,0,23.5-.44,35.22,0,14.55.54,29.08.4,43.62.32.43,0,.83.02.98.52-.04.73-1.21,1.06-.76,1.94,1.15,2.28.56,4.71.59,7.07.08,8.1-.02,16.19.08,24.29.02,1.36-1.48,2.88.22,4.12,1.38,1.02,3.02.67,4.57.68,10.17.02,20.33.01,30.5.02,3.16,0,3.56-.39,3.56-3.56,0-10.49.01-20.98-.01-31.48,0-.97-.21-1.95-.33-2.92Zm-174.51.03h0c-30.43,0-60.85,0-91.28,0q-4.52,0-4.51,4.35c0,10.33.04,20.66-.05,30.99-.02,2.08.62,2.65,2.68,2.62,9.01-.11,18.02-.04,27.04-.05,2.84,0,3.31-.49,3.31-3.34,0-7.68-.01-15.37-.02-23.05,0-4.1.75-4.86,4.91-4.86,34.39,0,68.79,0,103.18,0,15.71,0,31.42,0,47.13,0,2.58,0,4.63-2.01,4.34-4.82-.23-2.16-2.36-1.78-3.95-1.85-.17,0-.33,0-.5,0-30.76,0-61.51,0-92.27,0Z"/>
  <path class="cls-3" d="m610.57,61.39c-.01.27-.02.54-.04.81-.17.26-.44.51-.49.79-1.31,7.44-4.3,14.16-8.89,20.11-1.48,1.91-3.3,3.69-5.3,5.04-2.22,1.5-4.63,2.76-7.16,3.81-11.96,5.02-23.88,5.31-35.99.44-3.44-1.38-6.42-3.56-9.85-4.89-.37-.37-.74-.73-1.11-1.1-.17-.99-1.04-1.45-1.66-2.07-3.84-3.85-6.59-8.65-8.09-13.57-1.93-6.29-2.84-13.04-1.81-19.79.69-4.5,1.68-9.11,3.75-12.99,2.64-4.95,5.91-9.71,10.94-12.96,3.51-2.27,6.98-4.36,10.98-5.74,3.44-1.19,6.91-1.46,10.42-1.73,8.52-.66,16.62.65,24.42,4.47,4.9,2.39,8.58,6.01,11.79,10.08,1.99,2.52,4.58,4.8,5.04,8.48.33,2.65.15,3.44-2.59,3.38-1.23-.03-2.46-.18-3.68-.27-3.35-.23-6.85-.73-10.06-.05-3.36.72-5.35-.32-7.6-2.49-2.12-2.05-4.59-3.93-7.87-3.89-.32-.06-.65-.12-.97-.19-3.14-1.4-6.28-1.4-9.41.04-.32.06-.64.11-.96.17-3.91.53-7.02,2.47-9.34,5.59-5.3,7.12-5.66,14.9-2.73,22.99,1.45,4.01,4.18,7.3,7.93,9.08,4.84,2.29,10.15,2.73,15.5,1.56,4.04-.88,7.23-3.11,9.97-6.08.86-.93,1.48-2.11.88-3.39-.61-1.32-1.78-1.88-3.26-1.76-.49.04-1-.02-1.48.06-4.02.72-8.08.18-12.11.34-1.92.08-2.9-.85-2.85-2.85.05-2.56.04-5.12.01-7.68-.04-4.02.33-4.42,4.32-4.42,11.89-.02,23.78-.01,35.68-.07,2.84-.01,3.23.29,3.41,3.16.15,2.53-.4,5.08.25,7.59Z"/>
  <path class="cls-3" d="m480.88,196.08c3.29,0,6.58-.03,9.87.01,2.03.03,3.83.34,4.68,2.72,2.12,5.93,7.18,8.13,13.3,5.96,3.35-1.18,4.63-4.16,3.02-7.26-.4-.78-1.03-1.59-1.77-2.02-3.19-1.86-6.33-3.68-10.18-4.25-8.54-1.27-16.5-4.05-22.34-10.93-2.55-3-3.64-6.78-4.05-10.49-.84-7.63.95-14.68,7.04-19.9,4.5-3.85,9.91-5.7,15.79-6.44,8.36-1.05,16.34-.1,24.14,3.26,5.61,2.42,8.9,6.96,11.61,11.92,1.29,2.35,1.49,5.38,1.85,8.14.3,2.34-1.02,3.29-3.32,2.95-4.02-.59-8.07-.41-12.1-.11-1.43.11-2.76.06-4.15-.2-1.4-.27-2.06-1-2.4-2.4-1.47-5.93-9.37-8.59-14.23-4.85-3.07,2.36-2.71,6.73.74,8.58,3.72,1.99,7.6,3.28,11.79,4.19,3.3.72,6.84,1.44,9.98,3.3,2.36,1.4,5,2.33,7.27,4.03,6.31,4.71,8.33,11.11,7.75,18.64-.06.74-.21,1.48-.19,2.22.11,6.27-3.87,10.21-8.07,13.95-5.45,4.86-12.21,5.98-19.2,6.33-7.79.39-15.42-.56-22.29-4.33-5.09-2.79-9.35-6.64-11.01-12.72-.7-2.56-1.47-5.03-1.44-7.71.02-1.87.76-2.72,2.7-2.6,1.73.11,3.47.02,5.21.02,0,0,0,0,0,0Z"/>
  <path class="cls-3" d="m832.24,221.66c-8.1,0-16.2,0-24.3,0-2.98,0-3.62-.69-3.05-3.49.82-4.08.17-8.19.23-12.27.24-17.1.1-34.2.06-51.3,0-2.13-.3-4.27-.35-6.4-.08-3.23.49-3.71,3.68-3.71,15.54.01,31.08,0,46.62-.01,2.32,0,3.65,1,3.24,3.24-.73,3.99.08,7.9.05,11.84-.02,3.15-1.12,3.96-4.19,3.88-6.81-.18-13.63-.07-20.45-.08-1.07,0-2.13.06-3.2-.21-1.95-.49-3.09.48-3.22,2.37-.14,2.14-.07,4.29,0,6.44.05,1.68,1.03,2.23,2.66,2.1,7.51-.58,15.03-.08,22.54-.27,1.93-.05,2.78.84,2.72,2.88-.12,4.13-.1,8.26,0,12.39.04,1.89-.62,2.75-2.55,2.74-7.52-.05-15.04,0-22.56-.12-1.91-.03-2.82.6-2.84,2.47-.02,2.07,0,4.13,0,6.2,0,1.93.81,2.8,2.87,2.78,8.84-.09,17.69,0,26.53-.12,1.87-.02,2.7.86,2.74,2.41.11,4.87.04,9.75.04,14.62,0,1.75-1.27,1.61-2.44,1.61-8.27,0-16.53,0-24.8,0v.04Z"/>
  <path class="cls-3" d="m407.81,95.09c-7.69,0-15.38-.01-23.06,0-3.44,0-3.83-.49-3.7-3.9.1-2.55-.22-5.11-.22-7.67-.03-20.5-.02-41-.03-61.5,0-3.27.75-4.13,4.06-4.13,14.97-.02,29.94-.01,44.91.04,3.73.01,4.27.65,4.26,4.38-.01,3.8-.08,7.6-.02,11.41.03,2.06-.67,3-2.89,2.96-8.18-.16-16.37-.18-24.55-.27-2.36-.03-3.42,1.14-3.24,3.51.11,1.48.08,2.97.12,4.45.05,1.89.92,2.88,2.92,2.86,6.7-.08,13.39-.05,20.09-.17,3.85-.07,4.79.81,4.74,4.69-.04,3.22,0,6.45.03,9.67.03,2.87-.99,4.09-3.74,3.87-6.78-.53-13.56-.02-20.33-.27-3.03-.12-3.67.52-3.71,3.52-.02,1.73-.06,3.47.02,5.21.1,2.11,1.25,3.01,3.42,2.97,8.35-.15,16.69-.23,25.04-.26,2.29,0,3.32,1.25,3.42,3.59.19,4.36-.41,8.74.27,13.09.2,1.29-.99,1.37-1.79,1.6-2.68.77-5.43.24-8.14.31-5.95.15-11.9.05-17.85.05h0Z"/>
  <path class="cls-3" d="m569.29,156.44c.02,1.26.04,2.52.06,3.78-.59,4.25-.58,8.51,0,12.76,0,.38,0,.75,0,1.13-.56,4.75-.56,9.5,0,14.25,0,.71,0,1.41,0,2.12-.49,3.87.86,7.14,3.67,9.65,1.37,1.22,2.93,2.73,5.19,2.05.85.01,1.7.03,2.55.04.45.57,1.06.34,1.61.27,5.41-.66,8.4-3.71,9.42-9.25.71-3.86.57-7.73.59-11.6.04-10.9.01-21.81.03-32.71,0-1.9.14-3.82,2.74-3.83,5.21-.03,10.41,0,15.62.03,2.15,0,3.05,1.04,3.05,3.24-.04,12.64,0,25.28.04,37.92.01,2.98-.2,5.93-.53,8.89-.97,8.75-4.44,16.13-11.68,21.38-3.9,2.83-8.3,4.39-13.1,5.4-7.46,1.57-14.59.95-21.69-1.43-2.8-.94-5.07-3.08-8.06-3.59-.55-.51-1.1-1.03-1.65-1.54.12-.71-.52-.96-.86-1.39-1.68-2.13-3.81-4.05-4.96-6.43-2.75-5.69-4.03-11.83-4.04-18.18-.02-13.54-.02-27.07-.02-40.61,0-2.94.66-3.62,3.64-3.64,4.54-.04,9.08-.02,13.63-.03,3.92,0,3.78.17,4.27,3.94.32,2.48-.92,5.04.49,7.41Z"/>
  <path class="cls-3" d="m662.6,202.45c1.83-.02,3.66-.04,5.49-.06.29.12.59.37.86.34,4.34-.59,8.26-1.98,11.09-5.61.91-1.16,2.05-2.11,2.47-3.63.38-1.36,1.44-2.02,2.8-2.03,5.87-.05,11.73-.08,17.6-.06,1.44,0,2.55.72,2.04,2.33-1.77,5.58-4.21,10.79-7.9,15.43-1.53,1.92-3.44,3.3-5.26,4.79-4.33,3.54-9.22,6.2-14.73,7.27-5.96,1.16-11.94,2.07-18.13.92-4.76-.88-9.53-1.92-13.64-4.22-5.83-3.27-10.92-7.68-14.14-13.82-2.81-5.37-4.99-10.95-5.14-17.08-.12-4.9-.02-9.69,1.24-14.63,1.41-5.53,3.64-10.47,7.11-14.7,7.55-9.22,17.71-13.54,29.53-13.74,10.89-.19,20.89,2.36,29.17,10.07,1.24,1.15,2.37,2.67,4.13,3.27.19.16.38.33.57.49-.09,1.34.6,2.44,1.36,3.37,2.48,3.02,3.46,6.74,4.95,10.22.87,2.03.12,3.17-1.91,3.17-5.54.02-11.07-.02-16.61-.07-1.28-.01-2.59-.27-3.1-1.62-1.71-4.47-5.4-6.85-9.52-8.31-5.56-1.97-11.2-1.81-16.47,1.3-5.76,3.4-8.38,8.78-8.87,15.17-.5,6.55.75,12.78,5.93,17.36,2.5,2.21,5.29,4.45,9.09,4.06Z"/>
  <path class="cls-3" d="m972.72,174.42c.26.03.52.05.78.08,1.27,1.07,2.78,1.74,4.35,2.1,4.33,1.01,8.44,2.41,12.17,4.97,5.08,3.49,8.63,7.83,9.24,14.17.4,4.14.68,8.52-1.03,12.21-2.78,5.99-7.32,10.41-14.01,12.5-11.08,3.46-21.95,3.46-32.45-1.58-6.69-3.22-11.61-8.24-12.56-16.14-.08-.65-.22-1.3-.39-1.93-.73-2.71,0-3.77,2.72-3.78,4.79-.02,9.59.03,14.38,0,2,0,3.34.74,3.7,2.84.39,2.3,1.81,3.83,3.78,4.94,4.02,2.25,8.08,2.1,12.09.06,2.18-1.1,3.06-3.24,2.56-5.62-.85-4.11-6.65-8.08-11.22-7.68-.42-.06-.83-.13-1.25-.19-.24-.54-.78-.51-1.24-.67-4.16-1.46-8.6-2.01-12.6-4.08-1.31-.67-2.39-2.12-4.16-1.79,0,0-.04-.06-.04-.06-.35-.88-.83-1.58-1.94-1.45-.67-.67-1.33-1.34-2-2.01.1-1.19-.61-1.75-1.62-2.07-.06-.1-.14-.18-.24-.25-.45-1.76-1-3.46-2.58-4.59-.07-.81-.13-1.63-.2-2.44.64-.84.19-1.75.18-2.63-.06-4.95-.23-9.88,2.87-14.24,3.44-4.83,7.97-8.41,13.54-9.89,5.39-1.43,11.1-1.76,16.73-1.19,6.58.67,12.8,2.39,17.88,6.95,4.32,3.89,7.15,8.61,7.73,14.49.27,2.72-.45,3.41-3.16,3.4-4.13,0-8.27-.15-12.39.08-2.68.15-4.29-.67-4.87-3.34-.44-1.98-1.63-3.48-3.48-4.25-3.44-1.43-6.94-2.02-10.59-.56-2.32.93-3.7,2.49-3.79,4.98-.08,2.47.78,4.53,3.15,5.7,1.19.58,2.34,1.25,3.55,1.76,2.03.86,4.08,1.71,6.38,1.17Z"/>
  <path class="cls-3" d="m899.8,192.46c-.91-.32-1.82-.63-2.72-.95-.25-.18-.48-.44-.77-.54-4.27-1.4-8.75-1.96-12.9-3.96-7.06-3.4-12.11-8.1-13.84-16.15-2.41-11.14,5.96-24.2,17.17-25.9,4.48-.68,8.99-1.17,13.57-1.06,6.43.16,12.68,1.59,17.85,5.1,5.81,3.94,9.47,9.88,10.06,17.2.13,1.66-.52,2.77-2.61,2.72-4.54-.11-9.09-.06-13.64.02-2.09.04-3.39-.78-4.19-2.74-2.34-5.72-8.78-8.05-14.34-5.29-4.34,2.16-5.01,7.32-1.1,10.02,2.08,1.43,4.48,2.66,6.92,3.24,5.7,1.35,11.3,2.84,16.7,5.2,7.65,3.36,12.88,8.51,13.76,17.12.56,5.54-.05,10.9-3.74,15.46-2.92,3.6-6.02,6.76-10.78,8.17-6.56,1.96-13.09,3.31-19.96,2.4-1.78-.23-3.52-1.05-5.36-.33-.33-.07-.65-.14-.98-.21-.23-.75-.65-.4-1.05-.19-.78-.08-1.55-.17-2.33-.25-.07-1.51-1.4-1.75-2.38-2.15-3.97-1.64-7.18-4.09-9.78-7.57-2.71-3.63-3.85-7.77-4.7-12.04-.4-1.99.32-2.95,2.68-2.84,4.62.21,9.26.18,13.88.01,2.48-.09,3.93.79,4.57,3.16.51,1.9,1.53,3.48,3.29,4.47,4.02,2.24,8.14,2.56,12.33.47,2.03-1.01,3.09-2.61,3.07-4.95-.05-4.05-3.21-6.87-8.67-7.64Z"/>
  <path class="cls-2" d="m401.68,221.55c-8.85,0-17.69,0-26.54,0-3.22,0-3.25-.26-2.84-3.38.39-3.02,1.53-5.85,1.77-8.91.24-3.12,3-4.43,5.21-6.16,4.66-3.63,9.79-6.56,14.42-10.26,3.83-3.06,8.11-5.53,12.1-8.39,4.25-3.05,8.69-5.89,12.12-9.96,2.22-2.64,2.2-8.34-.08-10.79-1.45-1.56-7.81-2.1-9.55-.66-2.08,1.73-4.82,3-4.62,6.48.07,1.24-.84,1.78-2.27,2-5.42.81-10.84.3-16.26.32-2.07.01-3.1-1.69-2.15-3.53,1.46-2.84,1.81-6.04,3.56-8.85,5.02-8,11.28-14.01,21.16-15.11,2.28-.25,4.54-.82,6.82-.91,6.12-.23,12.06.95,17.22,4.25,3,1.92,5.44,4.43,7.23,8,2.93,5.83,2.13,11.53,1.01,17.19-.89,4.51-3.77,8.31-6.8,11.93-3.64,4.36-8.1,7.69-12.66,10.82-1.99,1.36-3.84,3.03-6.05,4.11-.82.4-1.73.94-1.44,2.02.25.93,1.36.71,2.07,1.05.21.1.5.1.73.05,5.04-1.23,10.13.93,15.21-.33,2.25-.56,3.92,1,3.65,3.38-.42,3.65-1.05,7.3-1.97,10.85-1.25,4.81-1.4,4.77-6.49,4.77-8.19,0-16.37,0-24.56,0Z"/>
  <path class="cls-2" d="m352.85,83.03c-.76-1.52-1.83-2-3.67-2-24.29.11-48.63.98-72.87-.14-26.09-1.21-52.15-.16-78.22-.76-3.82-.09-3.84-.6-4.01-4.33-.42-9.56.45-19.13-.53-28.68-.17-1.7-1.13-3.71.67-5.24.12,1.69.22,3.39.35,5.08.12,1.55.88,2.3,2.45,1.67,1.19-.48,2.42-.45,3.65-.45,21.09,0,42.17.01,63.26-.02,2.4,0,4.71.64,7.13.59,1.42-.03,2.41,1.12,2.36,2.65-.29,8.48.71,17-.58,25.45-.19,1.24.26,1.8,1.2,2.35,1.21.71,2.51.69,3.84.69,24.06-.01,48.13-.02,72.19-.02,3,0,3.58.68,2.78,3.16Z"/>
  <path class="cls-2" d="m712.91,183.73c-.74-9.61,2.03-17.8,7.02-25.01,3.47-5.01,8.08-9.12,13.88-11.85,6.81-3.2,13.9-4.74,21.26-4.37,8.28.41,16.1,2.58,23.14,7.43,7.9,5.44,12.71,12.83,15.41,21.82.95,3.15.25,4.1-2.94,4.2-4.12.13-8.23-.2-12.36.34-1.99.26-4.1-.18-6.12-.54-1.1-.19-2.18-.77-2.68-1.98-3.63-8.74-16.27-10.82-22.73-7.53-5.14,2.62-8.99,6.57-9.49,13.08-.25,3.33-.43,6.69.3,9.79,1.09,4.64,4.12,8.27,8.36,10.75,4.87,2.84,9.51,2.2,14.78.46,4.47-1.47,6.56-4.55,8.82-7.86,1.1-1.62,2.49-2.4,4.29-2.42,5.62-.06,11.25-.1,16.87,0,3.58.07,4.33,1.67,3.3,5-1.33,4.27-3.54,8.1-5.39,12.11-.7,1.52-2.15,2.23-3.17,3.4-4.09,4.72-8.93,8.43-14.87,10.55-8.44,3.02-17.18,3.98-25.94,2.26-8.09-1.59-15.43-5.35-21.29-11.15-3.39-3.35-6.05-7.61-7.64-12.24-1.86-5.44-3.84-10.92-2.8-16.27Zm40.66-39.28c-3.02-.04-5.73.12-8.44.49-4.99.68-9.68,2.62-13.75,5.17-4.23,2.65-7.88,6.33-10.74,10.74-3.19,4.89-5.09,10.23-6.06,15.78-1.55,8.84.11,17.34,4.08,25.44,4.64,9.46,12.29,15.22,22.09,18.32,6.73,2.13,13.64,1.96,20.61,1.14,8.11-.95,14.9-4.69,20.86-9.82,5.3-4.56,7.87-11.04,10.34-17.44.68-1.78-.31-2.52-1.87-2.61-1.14-.06-2.32.4-3.43.26-4.29-.54-8.59-.02-12.87-.29-1.38-.09-2.53.44-3.09,1.65-2.19,4.77-6.12,7.61-10.87,9.06-4.88,1.49-10.12,1.62-14.74-.63-5.4-2.63-8.54-7.19-10.04-13.28-1.29-5.26-.73-10.2,1.38-14.69,3.57-7.59,9.85-11.49,18.56-10.72,6.56.58,11.85,3.28,15.13,9.17.96,1.73,2.3,2.14,4.09,2.13,5.02-.04,10.04,0,15.06,0,1.86,0,2.86-1.04,2.18-2.57-3.25-7.43-6.58-14.65-13.79-19.51-7.65-5.16-15.65-8.33-24.66-7.78Z"/>
  <path class="cls-2" d="m864,55.7c0,11.49,0,22.98,0,34.47,0,.08,0,.17,0,.25q.03,5.2-5.46,5.18c-5.04-.01-10.09.02-15.13-.01-3.1-.02-3.56-.57-3.55-3.63.02-7.36,0-14.71.05-22.07.01-1.85-.5-3.28-2.6-2.98-5.44.78-10.89.19-16.33.37-3.19.11-3.34.46-2.91,3.73.61,4.68.2,9.4.2,14.1,0,2.79.34,5.59-.36,8.38-.37,1.47-1.09,2.12-2.55,2.12-6.12,0-12.24,0-18.36-.02-1.81,0-2.77-.94-2.74-2.76.07-5.02.11-10.04.26-15.05.07-2.55.13-5.08-.15-7.64-.27-2.51.02-5.07.02-7.61-.03-13.86-.08-27.73-.12-41.59,0-3.28.27-3.56,3.52-3.56,5.62,0,11.25.06,16.87-.04,1.93-.03,2.93.69,3.22,2.57.85,5.67.56,11.36.19,17.03-.14,2.1.04,4.25-.54,6.38-.33,1.2.9,1.8,2.12,1.81,6.12.01,12.24,0,18.36.03,1.79,0,1.91-1.12,1.91-2.49-.03-7.11-.03-14.22-.03-21.33,0-3.27.61-3.91,3.89-3.93,5.54-.03,11.08-.04,16.62,0,3.14.02,3.63.53,3.63,3.58,0,11.57,0,23.14,0,34.72h-.01Zm-68.49.99c0,11.57.01,23.14-.01,34.71,0,1.68.31,3,2.36,3.02,5.54.05,11.08.1,16.62.12,1.4,0,2.17-.7,2.06-2.16-.57-7.67-.04-15.36-.29-23.04-.1-3.07.63-4.03,3.61-4.11,6.28-.15,12.57-.14,18.85-.09,1.98.01,3.29,1.68,3.25,3.61-.14,7.48-.18,14.96-.41,22.44-.07,2.44.95,3.26,3.21,3.23,4.79-.06,9.59-.09,14.38-.01,2.32.04,3.18-.82,3.17-3.23-.05-22.89,0-45.79.02-68.68,0-2.86-.61-3.5-3.5-3.51-4.55-.02-9.1-.02-13.64-.02-2.9,0-3.66.74-3.62,3.69.07,4.62.19,9.24.32,13.86.05,1.89-.67,3.73-.13,5.66.72,2.61-.51,4.13-3.32,4.19-1.9.04-3.8-.09-5.7-.11-4.46-.06-8.92-.09-13.38-.15-2.54-.03-3.32-1.28-3.17-3.82.39-6.76-.13-13.54.32-20.31.1-1.55-.14-3.4-2.44-3.19-4.95.46-9.91.13-14.86.2-3.23.05-3.71.48-3.71,3.74,0,11.32,0,22.65,0,33.97Z"/>
  <path class="cls-2" d="m771.51,43.51c-2.65,0-5.29-.09-7.93.03-2.49.11-3.62-1.26-4.09-3.41-.69-3.18-2.89-5.04-6.18-5.06-1.65-.01-3.31.01-4.96,0-2.34-.03-3.79,1.43-4.33,3.36-.56,2,.29,3.66,2.23,5,5.12,3.54,11.34,3.59,16.9,5.69,5.57,2.11,11.19,4.12,15.43,8.6,2.78,2.94,4.14,6.5,4.9,10.46,1.42,7.33-.49,13.92-4.62,19.75-2.47,3.48-6.51,5.49-10.51,7.03-5.26,2.03-10.85,2.58-16.45,2.54-7.34-.06-14.44-1.64-20.68-5.48-4.41-2.72-7.64-6.87-9.4-11.9-.95-2.71-1.77-5.44-1.6-8.41.1-1.83.97-2.63,2.54-2.65,5.87-.07,11.74-.1,17.6,0,2.09.04,3.29,1.4,3.51,3.48.34,3.16,2.73,4.58,5.23,5.24,2.24.6,4.77.39,7.13-.06,2.08-.4,3.57-1.42,3.83-3.86.25-2.36-1.04-3.8-2.71-4.81-3.32-2-6.98-3.48-10.77-4.1-5.29-.87-10.44-2.37-14.78-5.2-5.18-3.37-9.6-7.72-10.54-14.61-.86-6.35-.46-12.37,3.13-17.76,4.66-7,11.8-9.69,19.79-11.04,6.38-1.08,12.66-.67,18.68,1.16,4.78,1.45,9.4,3.43,13.06,7.49,3.25,3.61,4.82,7.71,6.24,12.08.39,1.22.47,2.42.41,3.66-.09,1.82-.82,2.9-2.9,2.82-2.72-.11-5.45-.03-8.18-.03h0Zm-39.6,26.97c-2.3,0-4.61,0-6.91,0-1.98,0-3.21.9-3.13,2.97.21,5.55,2.89,10.16,6.34,14.16,2.57,2.99,6.29,4.86,10.07,6,10.98,3.33,21.9,3.67,32.49-1.63,7.02-3.51,11.21-8.94,11.46-16.99.06-2.14-.08-4.29-.04-6.44.08-4.26-2.57-7.19-5-10.15-1.18-1.44-2.66-2.8-4.29-3.67-5.39-2.86-11.11-4.91-17.12-6.09-3.58-.7-6.96-2.02-10.18-3.73-3.26-1.73-3.96-6.9-1.21-9.31,3.62-3.16,9.15-3.13,12.96-.84,1.83,1.1,3.45,2.48,3.62,4.99.1,1.48,1.27,2.24,2.8,2.25,5.04.01,10.08.01,15.13.02,1.83,0,2.8-1.12,2.3-2.69-1.2-3.82-1.68-8-4.44-11.16-4.51-5.18-9.76-9.08-16.91-10.04-7.43-.99-14.69-1.09-22,1.09-11.72,3.49-17.98,14.91-14.85,27.14.67,2.62,2,5.34,3.78,7.35,4.7,5.28,11.04,7.76,17.84,9.26,4.41.98,8.81,2.07,12.87,4.15,2.71,1.39,4.18,4.19,3.84,7.17-.34,2.98-2.25,4.4-4.95,5.15-2.21.61-4.55.8-6.62.25-3.19-.85-6.36-2.34-7.08-6.12-.46-2.44-2.02-3.02-4.07-3.08-2.23-.06-4.46-.01-6.69,0Z"/>
  <path class="cls-2" d="m621.05,56.79c0-11.65,0-23.31,0-34.96,0-3.72.75-4.46,4.5-4.46,5.46,0,10.91,0,16.37,0,3.01,0,3.26.2,3.26,3.23,0,16.45,0,32.89,0,49.34,0,3.51,0,3.49,3.6,3.49,7.94-.01,15.88,0,23.81,0,3.35,0,4.21.95,4.33,4.23.19,5.18-.46,10.39.37,15.56.16.98-.56,1.52-1.37,1.82-1.08.41-2.21.56-3.39.56-15.71-.02-31.42,0-47.13-.01-4.04,0-4.36-.35-4.36-4.34,0-11.49,0-22.97,0-34.46Zm2.06.07h.07c0,11.24,0,22.48,0,33.72,0,3.8,0,3.84,3.88,3.85,11.08.03,22.16.04,33.24.03,3.8,0,7.61-.03,11.41-.1,1.23-.02,2.83-.06,2.89-1.66.19-5,.19-10.01.15-15.01-.01-1.49-.9-2.51-2.54-2.41-7.76.45-15.53.09-23.3.2-4.65.06-4.94-.19-4.95-4.84-.04-11.4-.02-22.81-.01-34.21,0-4.96-.02-9.92.04-14.87.03-1.91-.66-2.59-2.65-2.54-4.96.12-9.92-.01-14.88,0-2.68,0-3.34.71-3.34,3.41,0,11.49,0,22.97,0,34.46Z"/>
  <path class="cls-2" d="m518.15,55.26c0,11.32,0,22.64,0,33.96,0,.82.05,1.65.2,2.45.46,2.5-.42,3.81-3,3.87-4.88.1-9.76.08-14.63,0-1.8-.03-3.29-.69-4.14-2.56-1.26-2.8-3.71-4.77-5.43-7.28-5.74-8.4-12.35-16.17-17.98-24.64-.41-.62-.73-1.56-1.54-1.36-.86.21-.67,1.2-.67,1.93,0,9.67-.04,19.34.05,29,.05,4.96.15,4.95-4.93,4.95-4.96,0-9.92.02-14.88,0-3.73-.02-4.31-.69-3.92-4.26.09-.82.03-1.65.03-2.48,0-22.56,0-45.12,0-67.68,0-3.27.42-3.74,3.68-3.77,4.05-.05,8.11.14,12.15-.07,2.87-.15,4.77,1.17,6.22,3.3,7.29,10.74,15.7,20.64,23.12,31.28.36.52.77,1.26,1.54.96.79-.3.47-1.15.47-1.76,0-10-.02-20-.02-30,0-3.22.46-3.7,3.73-3.72,5.46-.03,10.91-.03,16.37.01,3.08.03,3.58.56,3.58,3.65.01,11.4,0,22.81,0,34.21h-.01Zm-69.36,1.53s0,0-.01,0c0,11.82.02,23.64-.03,35.46,0,1.48.59,2.26,1.96,2.27,5.79.06,11.58.06,17.36.01,1.05,0,1.93-.45,1.89-1.79-.35-10.48.46-20.98-.36-31.46-.06-.81-.02-1.68.22-2.44.55-1.71,1.95-2.06,2.9-.62,2.45,3.73,5.27,7.17,7.91,10.75,3.91,5.28,8.03,10.42,11.68,15.88,1.75,2.62,4.35,4.53,5.68,7.39.77,1.65,1.97,2.37,3.7,2.36,4.22,0,8.43,0,12.65-.05,1.88-.02,2.73-.84,2.72-2.92-.06-22.9-.04-45.79-.02-68.69,0-3.61-.77-4.45-4.28-4.46-4.3,0-8.6,0-12.9.01-3.19.01-3.88.73-3.87,3.97.03,9.83.07,19.67.07,29.5,0,1.09.44,2.56-1.06,2.97-1.34.37-2.37-.58-3.12-1.6-4.53-6.08-9.02-12.18-13.53-18.27-3.43-4.63-6.87-9.26-10.31-13.89-1.37-1.84-3.14-2.8-5.52-2.72-3.3.1-6.61.02-9.92.03-2.96,0-3.8.88-3.8,3.85,0,11.49,0,22.98,0,34.47Z"/>
  <path class="cls-2" d="m709.68,56.75c0,11.9-.04,23.8.03,35.69.02,2.38-.89,3.23-3.22,3.18-5.21-.1-10.42-.02-15.62-.03-5.31,0-5.34-.09-5.33-5.2.02-19.58,0-39.17,0-58.75,0-3.64.05-7.27-.02-10.91-.04-2.29.95-3.35,3.24-3.34,5.87.02,11.74-.04,17.61,0,2.78.02,3.28.62,3.29,3.4,0,11.98,0,23.96,0,35.94h.01Zm-22.11.25s.09,0,.14,0c0,11.4.08,22.81-.06,34.21-.03,2.48.89,3.28,3.12,3.26,4.79-.05,9.59-.12,14.38-.08,2.21.02,3.01-.81,3-3.1-.07-15.12-.06-30.25.02-45.37.04-7.93-.32-15.86.23-23.78.15-2.2-1.11-3.13-3.21-3.13-4.8,0-9.59.03-14.39-.02-2.3-.02-3.26.99-3.25,3.31.05,11.57.02,23.14.02,34.71Z"/>
  <path class="cls-2" d="m697.18,157.3c-1.76-.59-2.89-2.11-4.13-3.27-8.27-7.71-18.28-10.26-29.17-10.07-11.82.2-21.97,4.52-29.53,13.74-3.46,4.23-5.7,9.17-7.11,14.7-1.26,4.94-1.37,9.73-1.24,14.63.15,6.13,2.33,11.72,5.14,17.08,3.22,6.14,8.3,10.55,14.14,13.82,4.11,2.31,8.88,3.34,13.64,4.22,6.19,1.15,12.17.23,18.13-.92,5.51-1.07,10.4-3.73,14.73-7.27,1.82-1.49,3.73-2.87,5.26-4.79,3.69-4.64,6.14-9.86,7.9-15.43.51-1.61-.61-2.33-2.04-2.33-5.87-.02-11.73,0-17.6.06-1.37.01-2.42.67-2.8,2.03-.42,1.52-1.56,2.46-2.47,3.63-2.84,3.63-6.75,5.02-11.09,5.61-.27.04-.57-.22-.86-.34.28-.91,1.08-.81,1.79-1,4.98-1.39,9.22-3.75,11.36-8.81.89-2.1,2.86-2.47,4.73-2.51,5.78-.12,11.57-.1,17.35-.01,2.75.04,3.73,1.67,2.92,4.32-1.44,4.73-3.07,9.39-6.06,13.38-2.5,3.34-5.58,6.23-9,8.58-3.37,2.31-6.96,4.4-10.95,5.55-10.82,3.11-21.5,3.08-32.1-1.26-6.42-2.63-11.78-6.59-15.81-12.03-2.48-3.36-4.01-7.41-5.53-11.44-1.84-4.91-1.61-9.81-1.94-14.79-.35-5.32.8-10.35,2.58-15.18,2.93-7.93,8.2-14.04,15.37-18.63,7.49-4.8,15.82-6.31,24.4-6.01,7.91.27,15.52,2.11,22.24,6.93,2.7,1.94,5.39,3.71,7.28,6.49.29.43.48.85.45,1.37Z"/>
  <path class="cls-2" d="m889.88,222.2c1.84-.72,3.58.1,5.36.33,6.86.91,13.39-.44,19.96-2.4,4.76-1.42,7.86-4.57,10.78-8.17,3.7-4.55,4.31-9.92,3.74-15.46-.88-8.62-6.11-13.77-13.76-17.12-5.4-2.37-11-3.86-16.7-5.2-2.43-.58-4.84-1.8-6.92-3.24-3.92-2.7-3.25-7.86,1.1-10.02,5.56-2.77,12-.43,14.34,5.29.8,1.96,2.09,2.78,4.19,2.74,4.54-.08,9.09-.13,13.64-.02,2.09.05,2.74-1.07,2.61-2.72-.59-7.32-4.24-13.26-10.06-17.2-5.17-3.5-11.43-4.94-17.85-5.1-4.57-.11-9.09.38-13.57,1.06-11.21,1.7-19.57,14.76-17.17,25.9,1.74,8.05,6.78,12.75,13.84,16.15,4.15,2,8.63,2.57,12.9,3.96.28.09.51.35.77.54-1.26.66-2.69.55-3.87.19-5.79-1.75-11.71-3.16-16.76-6.85-7.27-5.29-10.23-16.46-7.51-25.03,2.52-7.97,7.87-12.73,15.15-15.25,6.69-2.32,13.78-3.04,20.92-1.54,3.87.81,7.66,1.73,11.29,3.37,4.08,1.84,6.56,5.31,9.31,8.52,2.7,3.16,3.12,7.16,3.84,11,.61,3.24-.98,4.39-4.36,4.2-3.85-.22-7.76-.49-11.61.18-3.9.68-5.99-.52-7.19-4.33-.57-1.81-2.03-2.76-3.5-3.67-2.23-1.4-7.92-1.05-9.95.54-2.32,1.82-2.02,5.89.69,7.36,3.6,1.95,7.39,3.22,11.46,4.15,3.7.85,7.52,1.86,11.12,3.61,3.06,1.49,5.9,3.16,8.39,5.32,6.15,5.32,7.16,12.4,6.39,20.04-.78,7.76-5.66,12.85-11.67,16.66-3.72,2.36-8.32,3.55-12.86,3.88-4.85.35-9.73.63-14.54-.47-.68-.15-1.76-.05-1.95-1.19Z"/>
  <path class="cls-2" d="m155.2.59c-.94,1-2.19.57-3.27.57-16.28.08-32.57.12-48.85.12-32.57,0-65.13,0-97.7-.02-3.69,0-3.99.36-3.99,4.18,0,63.36,0,126.72-.02,190.09,0,1.9-.33,3.78,1.99,4.62-2.31.75-3.63-.27-3.3-2.52.13-.89.15-1.81.15-2.71,0-63.52,0-127.05,0-190.57C.2.41.53.06,4.62.06c49.34-.01,98.69-.02,148.03-.01.87,0,1.84-.28,2.55.55Z"/>
  <path class="cls-2" d="m575.74,37.25c3.28-.04,5.75,1.84,7.87,3.89,2.25,2.18,4.24,3.21,7.6,2.49,3.21-.68,6.71-.18,10.06.05,1.22.08,2.45.24,3.68.27,2.74.06,2.91-.73,2.59-3.38-.45-3.69-3.05-5.97-5.04-8.48-3.21-4.06-6.89-7.68-11.79-10.08-7.8-3.81-15.91-5.12-24.42-4.47-3.51.27-6.99.54-10.42,1.73-4,1.39-7.47,3.47-10.98,5.74-5.03,3.26-8.31,8.01-10.94,12.96-2.07,3.88-3.06,8.49-3.75,12.99-1.03,6.75-.12,13.51,1.81,19.79,1.51,4.91,4.25,9.72,8.09,13.57.62.62,1.49,1.08,1.66,2.07-1.81.31-2.67-1.25-3.5-2.21-5.91-6.89-8.82-14.94-9.68-24.01-.72-7.62.59-14.83,3.41-21.66,2.08-5.05,5.57-9.46,9.85-13.1,4.98-4.23,10.76-6.99,17.01-8.33,5.99-1.28,12.11-1.61,18.35-.62,3.95.63,7.64,1.82,11.35,3.03,4.09,1.34,7.45,4.07,10.74,6.8,3.47,2.88,5.78,6.74,8.46,10.26,1.18,1.55,1.29,3.8,1.99,5.69.65,1.76-1.31,2.65-2.76,2.68-6.61.12-13.22.07-19.84-.02-1.23-.02-2.54-.63-3.25-1.61-1.89-2.61-4.67-3.84-7.39-5.2-.38-.19-.72-.4-.77-.87Z"/>
  <path class="cls-2" d="m558.8,216.92c3,.51,5.26,2.66,8.06,3.59,7.1,2.38,14.23,3,21.69,1.43,4.8-1.01,9.2-2.57,13.1-5.4,7.24-5.26,10.71-12.63,11.68-21.38.33-2.96.54-5.91.53-8.89-.05-12.64-.08-25.28-.04-37.92,0-2.21-.9-3.24-3.05-3.24-5.21-.02-10.41-.05-15.62-.03-2.6.01-2.73,1.93-2.74,3.83-.01,10.9,0,21.81-.03,32.71-.01,3.87.12,7.74-.59,11.6-1.02,5.54-4.02,8.6-9.42,9.25-.54.07-1.15.3-1.61-.27.11-.81.77-.69,1.32-.81,5.72-1.22,8.64-4.68,8.67-10.58.06-12.88.06-25.77,0-38.65,0-2,.33-3.93.51-5.89.14-1.56,1.09-2.36,2.64-2.36,6.12-.02,12.23-.04,18.35-.01,1.84,0,2.63,1.15,2.64,2.89.02,2.89.02,5.78.02,8.67-.01,12.64.22,25.28-.14,37.91-.22,7.72-2.9,14.99-8.22,20.63-4.2,4.45-9.48,7.48-15.85,8.79-6.01,1.24-11.88,1.65-17.86.73-4.74-.74-9.09-2.7-13.24-5.06-.46-.26-1.26-.65-.81-1.53Z"/>
  <path class="cls-2" d="m966.84,191.57c4.57-.4,10.37,3.57,11.22,7.68.49,2.38-.38,4.52-2.56,5.62-4.01,2.03-8.08,2.19-12.09-.06-1.97-1.1-3.38-2.64-3.78-4.94-.36-2.1-1.69-2.85-3.7-2.84-4.79.02-9.59-.03-14.38,0-2.73.01-3.45,1.07-2.72,3.78.17.63.31,1.28.39,1.93.94,7.9,5.86,12.92,12.56,16.14,10.5,5.05,21.37,5.04,32.45,1.58,6.69-2.09,11.22-6.51,14.01-12.5,1.72-3.7,1.43-8.07,1.03-12.21-.61-6.34-4.16-10.68-9.24-14.17-3.73-2.57-7.84-3.96-12.17-4.97-1.57-.37-3.08-1.04-4.35-2.1.39-.41.95-.52,1.37-.33,2.56,1.15,5.33,1.57,7.96,2.43,5.09,1.65,9.57,4.43,13.16,8.56,2.64,3.03,4.06,6.39,4.57,10.4.44,3.51.21,6.86-.57,10.24-1.25,5.45-4.13,9.77-8.88,12.76-10.44,6.57-21.6,6.57-33.22,3.99-6.15-1.37-11.19-4.25-15.13-9.01-2.03-2.46-4.44-4.77-4.28-8.5.07-1.84-1.3-3.53-1.38-5.46-.12-2.79.67-3.89,3.4-4.05,5.94-.35,11.87.32,17.8.43,1.41.03,1.95,1.16,2.33,2.26,1.94,5.6,6.02,7.79,11.85,6.33.24-.06.48-.11.72-.16,2.08-.37,3.62-1.53,3.82-3.63.18-1.91-.55-3.79-2.33-4.83-2.2-1.29-4.51-2.39-6.79-3.54-.43-.21-1-.18-1.07-.83Z"/>
  <path class="cls-2" d="m610.57,61.39c-.65-2.51-.09-5.06-.25-7.59-.18-2.87-.57-3.18-3.41-3.16-11.89.06-23.78.05-35.68.07-3.99,0-4.36.4-4.32,4.42.02,2.56.04,5.12-.01,7.68-.04,2,.94,2.93,2.85,2.85,4.04-.16,8.09.38,12.11-.34.48-.09.99-.02,1.48-.06,1.48-.12,2.65.43,3.26,1.76.59,1.29-.02,2.46-.88,3.39-2.74,2.97-5.93,5.2-9.97,6.08-5.35,1.17-10.65.73-15.5-1.56-3.75-1.77-6.48-5.07-7.93-9.08-2.93-8.09-2.57-15.87,2.73-22.99,2.32-3.12,5.43-5.06,9.34-5.59-.41,1-1.39,1.37-2.22,1.8-6.38,3.35-9.5,8.6-9.9,15.78-.31,5.47.84,10.52,3.88,14.97,2.56,3.75,6.7,5.1,11.04,5.57,2.29.25,4.63.08,6.94.02,4.29-.11,7.33-2.73,10.21-5.42,1.3-1.21.42-3.23-1.32-3.11-4.43.3-8.86-.46-13.28.31-2.74.48-4.27-.86-4.3-3.66-.05-3.55.02-7.11-.02-10.66-.03-2.32,1.11-3.26,3.35-3.26,13.23,0,26.46-.03,39.69-.07,1.38,0,2.39.29,2.67,1.9.54,3.12.28,6.25.14,9.37,0,.2-.44.38-.68.58Z"/>
  <path class="cls-2" d="m972.72,174.42c-2.3.54-4.35-.31-6.38-1.17-1.21-.52-2.37-1.18-3.55-1.76-2.38-1.17-3.23-3.23-3.15-5.7.08-2.49,1.47-4.04,3.79-4.98,3.65-1.47,7.15-.88,10.59.56,1.85.77,3.04,2.27,3.48,4.25.59,2.67,2.19,3.48,4.87,3.34,4.12-.23,8.26-.08,12.39-.08,2.71,0,3.43-.68,3.16-3.4-.58-5.88-3.41-10.61-7.73-14.49-5.07-4.56-11.29-6.28-17.88-6.95-5.64-.57-11.35-.24-16.73,1.19-5.58,1.48-10.11,5.06-13.54,9.89-3.1,4.36-2.93,9.29-2.87,14.24.01.88.46,1.79-.18,2.63-1.21-.29-.79-1.3-.83-2.03-.23-3.79-.1-7.59.53-11.33.51-3.07,2.74-5.31,4.84-7.28,2.29-2.14,4.66-4.25,7.63-5.72,4.41-2.19,9.11-2.56,13.79-3.18,5.57-.75,11.03.44,16.29,2.06,9.44,2.9,16.76,10.69,18.22,21.13.51,3.67-1.21,5.2-4.9,4.58-1.13-.19-2.38-.43-3.43-.13-3.42.97-6.84-.49-10.29.28-2.18.49-4.13-1.41-4.87-4.36-.57-2.28-1.89-3.68-4.06-4.09-2.82-.54-5.67-.86-8.44.52-1.52.76-2.62,1.64-2.69,3.47-.07,1.85.75,3.3,2.28,4.1,2.82,1.49,5.6,3.18,8.84,3.69.44.07.78.25.84.74Z"/>
  <path class="cls-2" d="m662.6,202.45c-3.8.39-6.59-1.85-9.09-4.06-5.18-4.58-6.43-10.81-5.93-17.36.49-6.39,3.11-11.76,8.87-15.17,5.27-3.11,10.91-3.27,16.47-1.3,4.12,1.46,7.81,3.84,9.52,8.31.51,1.35,1.82,1.6,3.1,1.62,5.54.05,11.07.08,16.61.07,2.03,0,2.78-1.14,1.91-3.17-1.49-3.47-2.47-7.19-4.95-10.22-.76-.93-1.45-2.03-1.36-3.37,4.81,4.22,7.09,9.71,7.94,15.9.21,1.54-.46,2.27-2.1,2.25-6.09-.05-12.18,0-18.27-.02-2.09,0-3.46-.92-4.37-2.94-2.43-5.39-7.39-7.2-12.66-7.92-8.1-1.11-13.96,2.49-17.95,9.48-.75,1.31-.77,2.7-.95,4.04-1.07,8.18-.03,15.66,7.71,20.54,1.38.87,2.9,1.53,4.41,2.17.6.25,1.01.5,1.1,1.15Z"/>
  <path class="cls-2" d="m194.42,41.7c.33-1.15,1.3-.82,2.06-.82,51.11,0,102.22.02,153.33.09,1.45,0,2.29-.53,3.02-1.58.95,1.12.31,1.73-.69,2.27-.86.46-1.77.33-2.67.33-50.79,0-101.59,0-152.38,0-.89,0-1.82.23-2.67-.28Z"/>
  <path class="cls-2" d="m352.8,3.16c-.76-1.55-1.88-1.97-3.69-1.95-12.39.13-24.79.08-37.19.07-36.94-.02-73.88-.04-110.82-.09-1.09,0-2.34.45-3.24-.63.74-.78,1.7-.51,2.58-.51,49.78,0,99.57,0,149.35,0,2.88,0,3.51.67,3.01,3.11Z"/>
  <path class="cls-2" d="m542.86,87.51c3.43,1.33,6.41,3.51,9.85,4.89,12.1,4.87,24.03,4.58,35.99-.44,2.52-1.06,4.94-2.32,7.16-3.81,2-1.35,3.82-3.13,5.3-5.04,4.6-5.95,7.58-12.67,8.89-20.11.05-.28.32-.53.49-.79.85,1.53.35,3.06-.08,4.54-1.35,4.62-2.56,9.24-5.69,13.19-2.12,2.67-3.82,5.7-6.41,7.98-1.4,1.23-2.95,2.41-4.62,3.21-3.01,1.44-5.91,3.03-9.13,4.12-5.11,1.73-10.35,2.19-15.52,2.06-3.7-.09-7.54.31-11.32-1.48-2.71-1.28-5.83-2.02-8.68-3.26-2.52-1.1-4.86-2.48-6.22-5.04Z"/>
  <path class="cls-2" d="m899.8,192.46c5.46.77,8.63,3.6,8.67,7.64.03,2.34-1.04,3.94-3.07,4.95-4.19,2.09-8.31,1.77-12.33-.47-1.76-.98-2.78-2.56-3.29-4.47-.64-2.37-2.08-3.25-4.57-3.16-4.62.17-9.26.2-13.88-.01-2.36-.11-3.07.85-2.68,2.84.85,4.28,1.98,8.42,4.7,12.04,2.6,3.47,5.81,5.93,9.78,7.57.98.4,2.31.64,2.38,2.15-2.29.38-3.95-1.17-5.62-2.17-7.63-4.57-12.02-11.25-12.25-20.33-.07-2.86.66-3.54,3.45-3.55,4.93-.02,9.86-.02,14.79,0,3.43.01,4.76,1.11,5.44,4.42.7,3.42,3.72,3.96,6.31,4.76,1.77.55,3.72.4,5.6-.18,1.99-.62,3.48-1.59,3.63-3.81.16-2.39-.54-4.28-2.94-5.45-1.46-.71-3.44-.85-4.12-2.78Z"/>
  <path class="cls-2" d="m569.29,156.44c-1.41-2.37-.17-4.93-.49-7.41-.49-3.77-.35-3.94-4.27-3.94-4.54,0-9.08-.01-13.63.03-2.98.02-3.64.71-3.64,3.64,0,13.54,0,27.07.02,40.61,0,6.35,1.3,12.49,4.04,18.18,1.15,2.39,3.28,4.3,4.96,6.43.34.43.98.68.86,1.39-1.55.54-1.97-.9-2.7-1.63-4.42-4.49-6.49-10.14-7.83-16.13-.34-1.53-.54-3.06-.54-4.64,0-15.2.04-30.41-.09-45.61-.02-2.6,1.17-3.42,3.34-3.44,5.87-.06,11.74-.04,17.61-.01,1.83,0,2.96.76,2.85,2.85-.17,3.23.8,6.51-.5,9.68Z"/>
  <path class="cls-2" d="m947.6,184.85c1.77-.32,2.85,1.12,4.16,1.79,4,2.06,8.44,2.61,12.6,4.08.45.16,1,.13,1.24.67-1.35.92-2.72.39-3.98-.11-3.54-1.39-7.47-1.58-10.79-3.58-1.24-.74-3.15-.78-3.22-2.85Z"/>
  <path class="cls-2" d="m578.22,202.17c-2.26.68-3.82-.83-5.19-2.05-2.81-2.51-4.16-5.78-3.67-9.65,1.46,1.05,1.34,2.84,1.76,4.27,1,3.38,3.21,5.37,6.29,6.65.39.16.76.29.81.77Z"/>
  <path class="cls-2" d="m569.36,188.36c-.56-4.75-.56-9.5,0-14.25.79.09.8.7.8,1.27.01,3.9.01,7.81,0,11.71,0,.57,0,1.18-.8,1.27Z"/>
  <path class="cls-2" d="m565.36,37.1c3.13-1.44,6.27-1.44,9.41-.04-3.13.75-6.27.72-9.41.04Z"/>
  <path class="cls-2" d="m569.35,172.98c-.58-4.25-.59-8.51,0-12.76.63.06.79.51.79,1.02.01,3.57.01,7.15,0,10.72,0,.51-.16.97-.79,1.02Z"/>
  <path class="cls-2" d="m939.18,174.43c1.58,1.13,2.13,2.83,2.58,4.59-1.92-.94-2.64-2.54-2.58-4.59Z"/>
  <path class="cls-2" d="m942,179.27c1.01.32,1.72.88,1.62,2.07-1.22-.16-2.19-.51-1.62-2.07Z"/>
  <path class="cls-2" d="m945.61,183.34c1.11-.14,1.59.57,1.94,1.45-1.16.2-2-.02-1.94-1.45Z"/>
  <path class="cls-2" d="m352.37,199.72c-.19-.54,0-.91.51-1.14.58.71.53,1.15-.51,1.14Z"/>
  <path class="cls-2" d="m351.24,200.24c.2-.56.58-.71,1.12-.5.01,1.02-.42,1.07-1.12.5Z"/>
  <path class="cls-2" d="m887.85,221.81c.4-.21.83-.56,1.05.19-.49.7-.82.55-1.05-.19Z"/>
  <path class="cls-2" d="m114.35,88.83c-11.83,0-23.65,0-35.48,0-.98,0-1.97-.15-2.95-.23-1.94-.17-2.4-1.42-2.28-3.11.2-2.8-.45-3.56-3.27-3.56-8.35-.03-16.71-.05-25.06,0-5.09.04-5.93-.9-5.29-6.22.14-1.14.08-2.31.05-3.47-.23-9.57.52-19.15-.33-28.72-.2-2.19,1.65-3.62,3.84-3.23.73.13,1.47.22,2.21.22,35.15-.02,70.3-.06,105.44-.1,3.84,0,4.92,1.12,4.19,4.76-.78,3.84-.37,7.7-.38,11.55-.04,9.42-.02,18.85-.02,28.27,0,3.13-.57,3.76-3.69,3.84-2.23.05-4.47,0-6.7,0-10.09,0-20.18,0-30.27,0Zm-72.65-28.11h0c0,5.46.07,10.91-.04,16.36-.04,2.17.73,2.86,2.89,2.84,8.6-.1,17.2-.06,25.8-.04,1.17,0,2.3-.11,3.41-.49.79-.27,1.49-.86,1.27-1.61-.68-2.31.2-4.58-.03-6.83-.62-6.11-.19-12.22-.3-18.32-.05-2.62,1.32-3.99,3.91-4.09,3.96-.16,7.93-.49,11.88-.32,8.43.34,16.85.29,25.28.3,4.63,0,9.27.12,13.89-.11,6.77-.34,13.51-.03,20.23.58,1.82.17,2.7-.5,3.06-2.05.22-.95.08-1.98.17-2.96.16-1.76-.75-2.42-2.35-2.35-1.73.08-3.46.34-5.19.34-26.05.02-52.1,0-78.15.03-2.39,0-4.74-.29-7.16-.16-5.19.28-10.43.36-15.61.01-2.54-.17-3,.57-2.96,2.75.08,5.37.03,10.74.03,16.12Z"/>
  <path class="cls-1" d="m312,121.31c.11.97.32,1.95.33,2.92.02,10.49.01,20.98.01,31.48,0,3.18-.4,3.57-3.56,3.56-10.17,0-20.33,0-30.5-.02-1.55,0-3.18.34-4.57-.68-1.7-1.25-.2-2.76-.22-4.12-.09-8.1,0-16.19-.08-24.29-.02-2.36.56-4.79-.59-7.07-.45-.89.72-1.21.76-1.94.23-.13.47-.26.7-.39.52.74,1.32.57,2.04.57,10.97,0,21.94.01,32.92,0,.79,0,1.68.22,2.31-.54.15.17.31.35.46.52Z"/>
  <path class="cls-2" d="m311.54,120.8c-.63.76-1.51.54-2.31.54-10.97.01-21.94.01-32.92,0-.72,0-1.51.17-2.04-.57.69-.88,1.67-.57,2.53-.57,10.91-.02,21.82-.01,32.73,0,.7,0,1.52-.26,1.99.59Z"/>
  <path class="cls-1" d="m137.49,121.35c30.76,0,61.51,0,92.27,0,.17,0,.33,0,.5,0,1.59.07,3.73-.31,3.95,1.85.29,2.81-1.76,4.82-4.34,4.82-15.71,0-31.42,0-47.13,0-34.39,0-68.79,0-103.18,0-4.16,0-4.91.75-4.91,4.86,0,7.68.02,15.37.02,23.05,0,2.85-.47,3.34-3.31,3.34-9.01.01-18.02-.06-27.04.05-2.06.02-2.7-.55-2.68-2.62.1-10.33.06-20.66.05-30.99q0-4.35,4.51-4.35c30.43,0,60.85,0,91.28,0h0Z"/>
  <path class="cls-3" d="m753.57,144.45c9.01-.55,17.01,2.62,24.66,7.78,7.21,4.86,10.54,12.07,13.79,19.51.67,1.54-.32,2.58-2.18,2.57-5.02,0-10.04-.04-15.06,0-1.78.01-3.12-.4-4.09-2.13-3.28-5.9-8.57-8.59-15.13-9.17-8.71-.77-14.99,3.14-18.56,10.72-2.11,4.49-2.67,9.43-1.38,14.69,1.5,6.09,4.65,10.66,10.04,13.28,4.62,2.25,9.87,2.12,14.74.63,4.75-1.45,8.68-4.3,10.87-9.06.56-1.21,1.71-1.74,3.09-1.65,4.29.27,8.59-.25,12.87.29,1.11.14,2.29-.32,3.43-.26,1.56.09,2.55.83,1.87,2.61-2.46,6.4-5.04,12.88-10.34,17.44-5.97,5.13-12.76,8.87-20.86,9.82-6.97.82-13.88.99-20.61-1.14-9.79-3.1-17.45-8.85-22.09-18.32-3.97-8.1-5.63-16.6-4.08-25.44.97-5.55,2.88-10.89,6.06-15.78,2.87-4.4,6.52-8.09,10.74-10.74,4.07-2.55,8.77-4.49,13.75-5.17,2.71-.37,5.42-.53,8.44-.49Z"/>
  <path class="cls-3" d="m795.51,56.69c0-11.32,0-22.65,0-33.97,0-3.25.48-3.69,3.71-3.74,4.95-.07,9.91.25,14.86-.2,2.3-.21,2.55,1.64,2.44,3.19-.46,6.77.07,13.55-.32,20.31-.15,2.54.63,3.78,3.17,3.82,4.46.06,8.92.09,13.38.15,1.9.02,3.8.15,5.7.11,2.81-.06,4.04-1.58,3.32-4.19-.53-1.93.19-3.77.13-5.66-.13-4.62-.24-9.24-.32-13.86-.05-2.95.72-3.69,3.62-3.69,4.55,0,9.1,0,13.64.02,2.89.01,3.5.65,3.5,3.51-.02,22.89-.07,45.79-.02,68.68,0,2.4-.85,3.26-3.17,3.23-4.79-.08-9.59-.04-14.38.01-2.26.03-3.28-.79-3.21-3.23.23-7.48.27-14.96.41-22.44.04-1.93-1.27-3.6-3.25-3.61-6.28-.05-12.57-.06-18.85.09-2.98.07-3.71,1.03-3.61,4.11.25,7.68-.28,15.37.29,23.04.11,1.46-.66,2.17-2.06,2.16-5.54-.03-11.08-.08-16.62-.12-2.05-.02-2.36-1.34-2.36-3.02.02-11.57.01-23.14.01-34.71Z"/>
  <path class="cls-3" d="m731.91,70.47c2.23,0,4.46-.05,6.69.01,2.05.06,3.6.64,4.07,3.08.72,3.78,3.88,5.27,7.08,6.12,2.07.55,4.41.36,6.62-.25,2.7-.75,4.62-2.17,4.95-5.15.34-2.98-1.13-5.78-3.84-7.17-4.06-2.08-8.46-3.17-12.87-4.15-6.8-1.5-13.14-3.98-17.84-9.26-1.78-2-3.11-4.73-3.78-7.35-3.13-12.23,3.13-23.65,14.85-27.14,7.31-2.18,14.56-2.08,22-1.09,7.15.95,12.4,4.85,16.91,10.04,2.75,3.16,3.23,7.34,4.44,11.16.5,1.57-.47,2.69-2.3,2.69-5.04,0-10.08,0-15.13-.02-1.53,0-2.7-.77-2.8-2.25-.16-2.52-1.79-3.89-3.62-4.99-3.81-2.3-9.34-2.33-12.96.84-2.75,2.4-2.05,7.58,1.21,9.31,3.22,1.71,6.6,3.03,10.18,3.73,6.02,1.18,11.73,3.23,17.12,6.09,1.63.87,3.11,2.23,4.29,3.67,2.43,2.97,5.09,5.9,5,10.15-.04,2.15.1,4.29.04,6.44-.24,8.06-4.44,13.49-11.46,16.99-10.59,5.29-21.51,4.95-32.49,1.63-3.78-1.14-7.49-3.01-10.07-6-3.45-4-6.13-8.61-6.34-14.16-.08-2.07,1.16-2.97,3.13-2.97,2.3,0,4.61,0,6.91,0Z"/>
  <path class="cls-3" d="m623.11,56.86c0-11.49,0-22.97,0-34.46,0-2.7.66-3.41,3.34-3.41,4.96,0,9.92.13,14.88,0,1.98-.05,2.67.63,2.65,2.54-.07,4.96-.04,9.92-.04,14.87,0,11.4-.02,22.81.01,34.21.01,4.66.31,4.91,4.95,4.84,7.77-.11,15.53.25,23.3-.2,1.64-.09,2.53.92,2.54,2.41.04,5,.04,10.01-.15,15.01-.06,1.6-1.66,1.64-2.89,1.66-3.8.07-7.61.1-11.41.1-11.08,0-22.16,0-33.24-.03-3.88,0-3.88-.05-3.88-3.85,0-11.24,0-22.48,0-33.72h-.07Z"/>
  <path class="cls-3" d="m448.79,56.79c0-11.49,0-22.98,0-34.47,0-2.96.85-3.84,3.8-3.85,3.31-.01,6.62.07,9.92-.03,2.38-.07,4.15.88,5.52,2.72,3.44,4.63,6.88,9.25,10.31,13.89,4.51,6.09,9,12.2,13.53,18.27.76,1.01,1.78,1.96,3.12,1.6,1.5-.41,1.06-1.88,1.06-2.97,0-9.83-.04-19.67-.07-29.5-.01-3.24.68-3.96,3.87-3.97,4.3-.02,8.6-.02,12.9-.01,3.51,0,4.28.85,4.28,4.46-.01,22.9-.04,45.79.02,68.69,0,2.09-.84,2.9-2.72,2.92-4.22.05-8.43.05-12.65.05-1.73,0-2.93-.71-3.7-2.36-1.34-2.86-3.94-4.78-5.68-7.39-3.64-5.46-7.77-10.6-11.68-15.88-2.64-3.57-5.46-7.02-7.91-10.75-.95-1.44-2.35-1.09-2.9.62-.24.76-.28,1.63-.22,2.44.82,10.48,0,20.98.36,31.46.04,1.34-.84,1.79-1.89,1.79-5.79.04-11.58.04-17.36-.01-1.36-.01-1.96-.79-1.96-2.27.05-11.82.03-23.64.03-35.46,0,0,0,0,.01,0Z"/>
  <path class="cls-3" d="m687.57,56.99c0-11.57.03-23.14-.02-34.71,0-2.32.96-3.33,3.25-3.31,4.8.04,9.59.02,14.39.02,2.1,0,3.36.92,3.21,3.13-.55,7.92-.19,15.86-.23,23.78-.08,15.12-.09,30.25-.02,45.37.01,2.29-.79,3.12-3,3.1-4.79-.04-9.59.03-14.38.08-2.23.02-3.15-.77-3.12-3.26.14-11.4.06-22.81.06-34.21-.05,0-.09,0-.14,0Z"/>
  <path class="cls-1" d="m41.7,60.72c0-5.37.06-10.75-.03-16.12-.03-2.18.42-2.93,2.96-2.75,5.18.35,10.42.27,15.61-.01,2.42-.13,4.78.16,7.16.16,26.05-.02,52.1,0,78.15-.03,1.73,0,3.46-.26,5.19-.34,1.6-.07,2.51.6,2.35,2.35-.09.99.05,2.01-.17,2.96-.35,1.55-1.23,2.21-3.06,2.05-6.73-.62-13.46-.92-20.23-.58-4.62.23-9.26.12-13.89.11-8.43,0-16.85.05-25.28-.3-3.95-.16-7.92.16-11.88.32-2.58.11-3.96,1.48-3.91,4.09.11,6.11-.32,12.22.3,18.32.23,2.24-.65,4.52.03,6.83.22.75-.48,1.34-1.27,1.61-1.11.38-2.24.49-3.41.49-8.6-.02-17.2-.06-25.8.04-2.16.03-2.93-.66-2.89-2.84.11-5.45.04-10.91.04-16.36h0Z"/>
</svg>